{
	"asset":{
		"generator":"Khronos glTF Blender I/O v5.0.21",
		"version":"2.0"
	},
	"scene":0,
	"scenes":[
		{
			"name":"Scene",
			"nodes":[
				0,
				1,
				2,
				3,
				4,
				5,
				6,
				7
			]
		}
	],
	"nodes":[
		{
			"mesh":0,
			"name":"crewneck_womans_collar"
		},
		{
			"mesh":1,
			"name":"crewneck_womans_inside"
		},
		{
			"mesh":2,
			"name":"crewneck_womans_inside_label"
		},
		{
			"mesh":3,
			"name":"crewneck_womans_sweatband"
		},
		{
			"mesh":4,
			"name":"crewneck_womans_front"
		},
		{
			"mesh":5,
			"name":"crewneck_womans_back"
		},
		{
			"mesh":6,
			"name":"crewneck_womans_sleeve_left"
		},
		{
			"mesh":7,
			"name":"crewneck_womans_sleeve_right"
		}
	],
	"materials":[
		{
			"doubleSided":true,
			"name":"crewneck_womens",
			"normalTexture":{
				"index":0,
				"texCoord":1
			},
			"occlusionTexture":{
				"index":1,
				"texCoord":1
			},
			"pbrMetallicRoughness":{
				"baseColorFactor":[
					0.800000011920929,
					0.800000011920929,
					0.800000011920929,
					1
				],
				"metallicFactor":0,
				"metallicRoughnessTexture":{
					"index":1,
					"texCoord":1
				}
			}
		},
		{
			"doubleSided":true,
			"name":"crewneck_womens_inside",
			"normalTexture":{
				"index":2
			},
			"occlusionTexture":{
				"index":3
			},
			"pbrMetallicRoughness":{
				"baseColorFactor":[
					0.800000011920929,
					0.800000011920929,
					0.800000011920929,
					1
				],
				"metallicFactor":0,
				"metallicRoughnessTexture":{
					"index":3
				}
			}
		},
		{
			"alphaMode":"BLEND",
			"doubleSided":true,
			"name":"label",
			"pbrMetallicRoughness":{
				"baseColorFactor":[
					0,
					0,
					0,
					1
				],
				"baseColorTexture":{
					"index":4
				},
				"metallicFactor":0
			}
		},
		{
			"doubleSided":true,
			"name":"sweatband",
			"normalTexture":{
				"index":5
			},
			"pbrMetallicRoughness":{
				"baseColorTexture":{
					"index":6
				},
				"metallicFactor":0,
				"metallicRoughnessTexture":{
					"index":7
				}
			}
		}
	],
	"meshes":[
		{
			"name":"Mesh.002",
			"primitives":[
				{
					"attributes":{
						"POSITION":0,
						"NORMAL":1,
						"TEXCOORD_0":2,
						"TEXCOORD_1":3
					},
					"indices":4,
					"material":0
				}
			]
		},
		{
			"name":"Mesh.005",
			"primitives":[
				{
					"attributes":{
						"POSITION":5,
						"NORMAL":6,
						"TEXCOORD_0":7
					},
					"indices":8,
					"material":1
				}
			]
		},
		{
			"name":"Mesh.011",
			"primitives":[
				{
					"attributes":{
						"POSITION":9,
						"NORMAL":10,
						"TEXCOORD_0":11
					},
					"indices":12,
					"material":2
				}
			]
		},
		{
			"name":"Mesh.012",
			"primitives":[
				{
					"attributes":{
						"POSITION":13,
						"NORMAL":14,
						"TEXCOORD_0":15
					},
					"indices":16,
					"material":3
				}
			]
		},
		{
			"name":"Mesh.013",
			"primitives":[
				{
					"attributes":{
						"POSITION":17,
						"NORMAL":18,
						"TEXCOORD_0":19,
						"TEXCOORD_1":20
					},
					"indices":21,
					"material":0
				}
			]
		},
		{
			"name":"Mesh.010",
			"primitives":[
				{
					"attributes":{
						"POSITION":22,
						"NORMAL":23,
						"TEXCOORD_0":24,
						"TEXCOORD_1":25
					},
					"indices":26,
					"material":0
				}
			]
		},
		{
			"name":"Mesh.016",
			"primitives":[
				{
					"attributes":{
						"POSITION":27,
						"NORMAL":28,
						"TEXCOORD_0":29,
						"TEXCOORD_1":30
					},
					"indices":31,
					"material":0
				}
			]
		},
		{
			"name":"Mesh.018",
			"primitives":[
				{
					"attributes":{
						"POSITION":32,
						"NORMAL":33,
						"TEXCOORD_0":34,
						"TEXCOORD_1":35
					},
					"indices":36,
					"material":0
				}
			]
		}
	],
	"textures":[
		{
			"sampler":0,
			"source":0
		},
		{
			"sampler":0,
			"source":1
		},
		{
			"sampler":0,
			"source":2
		},
		{
			"sampler":0,
			"source":3
		},
		{
			"sampler":0,
			"source":4
		},
		{
			"sampler":0,
			"source":5
		},
		{
			"sampler":0,
			"source":6
		},
		{
			"sampler":0,
			"source":7
		}
	],
	"images":[
		{
			"mimeType":"image/jpeg",
			"name":"outside_normal",
			"uri":"outside_normal.jpg"
		},
		{
			"mimeType":"image/jpeg",
			"name":"outside_ao-outside_roughness",
			"uri":"outside_ao-outside_roughness.jpg"
		},
		{
			"mimeType":"image/jpeg",
			"name":"inside_normal",
			"uri":"inside_normal.jpg"
		},
		{
			"mimeType":"image/jpeg",
			"name":"inside_ao-inside_roughness",
			"uri":"inside_ao-inside_roughness.jpg"
		},
		{
			"mimeType":"image/png",
			"name":"label",
			"uri":"label.png"
		},
		{
			"mimeType":"image/jpeg",
			"name":"cotton_jersey_nor_gl",
			"uri":"cotton_jersey_nor_gl.jpg"
		},
		{
			"mimeType":"image/jpeg",
			"name":"sweatband",
			"uri":"sweatband.jpg"
		},
		{
			"mimeType":"image/jpeg",
			"name":"cotton_jersey_rough",
			"uri":"cotton_jersey_rough.jpg"
		}
	],
	"accessors":[
		{
			"bufferView":0,
			"componentType":5126,
			"count":441,
			"max":[
				0.09145981818437576,
				1.6132901906967163,
				0.016511164605617523
			],
			"min":[
				-0.09358391165733337,
				1.552437663078308,
				-0.1254858821630478
			],
			"type":"VEC3"
		},
		{
			"bufferView":1,
			"componentType":5126,
			"count":441,
			"type":"VEC3"
		},
		{
			"bufferView":2,
			"componentType":5126,
			"count":441,
			"type":"VEC2"
		},
		{
			"bufferView":3,
			"componentType":5126,
			"count":441,
			"type":"VEC2"
		},
		{
			"bufferView":4,
			"componentType":5123,
			"count":2232,
			"type":"SCALAR"
		},
		{
			"bufferView":5,
			"componentType":5126,
			"count":3531,
			"max":[
				0.2392074316740036,
				1.6032239198684692,
				0.12441661953926086
			],
			"min":[
				-0.24202461540699005,
				1.1041827201843262,
				-0.1495210826396942
			],
			"type":"VEC3"
		},
		{
			"bufferView":6,
			"componentType":5126,
			"count":3531,
			"type":"VEC3"
		},
		{
			"bufferView":7,
			"componentType":5126,
			"count":3531,
			"type":"VEC2"
		},
		{
			"bufferView":8,
			"componentType":5123,
			"count":19758,
			"type":"SCALAR"
		},
		{
			"bufferView":9,
			"componentType":5126,
			"count":4,
			"max":[
				0.008843292482197285,
				1.5717155933380127,
				-0.1266077309846878
			],
			"min":[
				-0.019569754600524902,
				1.5512402057647705,
				-0.13091661036014557
			],
			"type":"VEC3"
		},
		{
			"bufferView":10,
			"componentType":5126,
			"count":4,
			"type":"VEC3"
		},
		{
			"bufferView":11,
			"componentType":5126,
			"count":4,
			"type":"VEC2"
		},
		{
			"bufferView":12,
			"componentType":5123,
			"count":6,
			"type":"SCALAR"
		},
		{
			"bufferView":13,
			"componentType":5126,
			"count":126,
			"max":[
				0.09351950138807297,
				1.6032239198684692,
				0.016346272081136703
			],
			"min":[
				-0.09561917930841446,
				1.5440239906311035,
				-0.12367554008960724
			],
			"type":"VEC3"
		},
		{
			"bufferView":14,
			"componentType":5126,
			"count":126,
			"type":"VEC3"
		},
		{
			"bufferView":15,
			"componentType":5126,
			"count":126,
			"type":"VEC2"
		},
		{
			"bufferView":16,
			"componentType":5123,
			"count":372,
			"type":"SCALAR"
		},
		{
			"bufferView":17,
			"componentType":5126,
			"count":1911,
			"max":[
				0.16974200308322906,
				1.6089757680892944,
				0.13018900156021118
			],
			"min":[
				-0.17033399641513824,
				1.092995047569275,
				-0.07479400187730789
			],
			"type":"VEC3"
		},
		{
			"bufferView":18,
			"componentType":5126,
			"count":1911,
			"type":"VEC3"
		},
		{
			"bufferView":19,
			"componentType":5126,
			"count":1911,
			"type":"VEC2"
		},
		{
			"bufferView":20,
			"componentType":5126,
			"count":1911,
			"type":"VEC2"
		},
		{
			"bufferView":21,
			"componentType":5123,
			"count":10920,
			"type":"SCALAR"
		},
		{
			"bufferView":22,
			"componentType":5126,
			"count":1658,
			"max":[
				0.16974200308322906,
				1.6089757680892944,
				-0.0023980000987648964
			],
			"min":[
				-0.17020100355148315,
				1.0786869525909424,
				-0.15056000649929047
			],
			"type":"VEC3"
		},
		{
			"bufferView":23,
			"componentType":5126,
			"count":1658,
			"type":"VEC3"
		},
		{
			"bufferView":24,
			"componentType":5126,
			"count":1658,
			"type":"VEC2"
		},
		{
			"bufferView":25,
			"componentType":5126,
			"count":1658,
			"type":"VEC2"
		},
		{
			"bufferView":26,
			"componentType":5123,
			"count":9420,
			"type":"SCALAR"
		},
		{
			"bufferView":27,
			"componentType":5126,
			"count":365,
			"max":[
				0.2599560022354126,
				1.5840270519256592,
				0.0029360000044107437
			],
			"min":[
				0.1529504954814911,
				1.425832986831665,
				-0.11837750673294067
			],
			"type":"VEC3"
		},
		{
			"bufferView":28,
			"componentType":5126,
			"count":365,
			"type":"VEC3"
		},
		{
			"bufferView":29,
			"componentType":5126,
			"count":365,
			"type":"VEC2"
		},
		{
			"bufferView":30,
			"componentType":5126,
			"count":365,
			"type":"VEC2"
		},
		{
			"bufferView":31,
			"componentType":5123,
			"count":1962,
			"type":"SCALAR"
		},
		{
			"bufferView":32,
			"componentType":5126,
			"count":350,
			"max":[
				-0.1550140082836151,
				1.5841435194015503,
				0.0007280000136233866
			],
			"min":[
				-0.2627600133419037,
				1.4266810417175293,
				-0.11547467112541199
			],
			"type":"VEC3"
		},
		{
			"bufferView":33,
			"componentType":5126,
			"count":350,
			"type":"VEC3"
		},
		{
			"bufferView":34,
			"componentType":5126,
			"count":350,
			"type":"VEC2"
		},
		{
			"bufferView":35,
			"componentType":5126,
			"count":350,
			"type":"VEC2"
		},
		{
			"bufferView":36,
			"componentType":5123,
			"count":1881,
			"type":"SCALAR"
		}
	],
	"bufferViews":[
		{
			"buffer":0,
			"byteLength":5292,
			"byteOffset":0,
			"target":34962
		},
		{
			"buffer":0,
			"byteLength":5292,
			"byteOffset":5292,
			"target":34962
		},
		{
			"buffer":0,
			"byteLength":3528,
			"byteOffset":10584,
			"target":34962
		},
		{
			"buffer":0,
			"byteLength":3528,
			"byteOffset":14112,
			"target":34962
		},
		{
			"buffer":0,
			"byteLength":4464,
			"byteOffset":17640,
			"target":34963
		},
		{
			"buffer":0,
			"byteLength":42372,
			"byteOffset":22104,
			"target":34962
		},
		{
			"buffer":0,
			"byteLength":42372,
			"byteOffset":64476,
			"target":34962
		},
		{
			"buffer":0,
			"byteLength":28248,
			"byteOffset":106848,
			"target":34962
		},
		{
			"buffer":0,
			"byteLength":39516,
			"byteOffset":135096,
			"target":34963
		},
		{
			"buffer":0,
			"byteLength":48,
			"byteOffset":174612,
			"target":34962
		},
		{
			"buffer":0,
			"byteLength":48,
			"byteOffset":174660,
			"target":34962
		},
		{
			"buffer":0,
			"byteLength":32,
			"byteOffset":174708,
			"target":34962
		},
		{
			"buffer":0,
			"byteLength":12,
			"byteOffset":174740,
			"target":34963
		},
		{
			"buffer":0,
			"byteLength":1512,
			"byteOffset":174752,
			"target":34962
		},
		{
			"buffer":0,
			"byteLength":1512,
			"byteOffset":176264,
			"target":34962
		},
		{
			"buffer":0,
			"byteLength":1008,
			"byteOffset":177776,
			"target":34962
		},
		{
			"buffer":0,
			"byteLength":744,
			"byteOffset":178784,
			"target":34963
		},
		{
			"buffer":0,
			"byteLength":22932,
			"byteOffset":179528,
			"target":34962
		},
		{
			"buffer":0,
			"byteLength":22932,
			"byteOffset":202460,
			"target":34962
		},
		{
			"buffer":0,
			"byteLength":15288,
			"byteOffset":225392,
			"target":34962
		},
		{
			"buffer":0,
			"byteLength":15288,
			"byteOffset":240680,
			"target":34962
		},
		{
			"buffer":0,
			"byteLength":21840,
			"byteOffset":255968,
			"target":34963
		},
		{
			"buffer":0,
			"byteLength":19896,
			"byteOffset":277808,
			"target":34962
		},
		{
			"buffer":0,
			"byteLength":19896,
			"byteOffset":297704,
			"target":34962
		},
		{
			"buffer":0,
			"byteLength":13264,
			"byteOffset":317600,
			"target":34962
		},
		{
			"buffer":0,
			"byteLength":13264,
			"byteOffset":330864,
			"target":34962
		},
		{
			"buffer":0,
			"byteLength":18840,
			"byteOffset":344128,
			"target":34963
		},
		{
			"buffer":0,
			"byteLength":4380,
			"byteOffset":362968,
			"target":34962
		},
		{
			"buffer":0,
			"byteLength":4380,
			"byteOffset":367348,
			"target":34962
		},
		{
			"buffer":0,
			"byteLength":2920,
			"byteOffset":371728,
			"target":34962
		},
		{
			"buffer":0,
			"byteLength":2920,
			"byteOffset":374648,
			"target":34962
		},
		{
			"buffer":0,
			"byteLength":3924,
			"byteOffset":377568,
			"target":34963
		},
		{
			"buffer":0,
			"byteLength":4200,
			"byteOffset":381492,
			"target":34962
		},
		{
			"buffer":0,
			"byteLength":4200,
			"byteOffset":385692,
			"target":34962
		},
		{
			"buffer":0,
			"byteLength":2800,
			"byteOffset":389892,
			"target":34962
		},
		{
			"buffer":0,
			"byteLength":2800,
			"byteOffset":392692,
			"target":34962
		},
		{
			"buffer":0,
			"byteLength":3762,
			"byteOffset":395492,
			"target":34963
		}
	],
	"samplers":[
		{
			"magFilter":9729,
			"minFilter":9987
		}
	],
	"buffers":[
		{
			"byteLength":399256,
			"uri":"crewneck_womans.bin"
		}
	]
}
